<?xml version="1.0" standalone="no"?>
<!DOCTYPE svg PUBLIC "-//W3C//DTD SVG 20010904//EN"
 "http://www.w3.org/TR/2001/REC-SVG-20010904/DTD/svg10.dtd">
<svg version="1.0" xmlns="http://www.w3.org/2000/svg"
 width="167.000000pt" height="169.000000pt" viewBox="0 0 167.000000 169.000000"
 preserveAspectRatio="xMidYMid meet">

<g transform="translate(0.000000,169.000000) scale(0.100000,-0.100000)"
fill="#000000" stroke="none">
<path d="M160 966 l0 -714 -26 -6 c-73 -19 -104 -70 -104 -175 0 -68 1 -71 24
-71 19 0 26 7 31 30 7 32 67 90 73 71 2 -6 -8 -25 -22 -42 -53 -63 -98 -59
719 -59 l745 0 0 418 c0 407 0 417 20 430 20 12 20 21 18 420 l-3 407 -737 3
-738 2 0 -714z"/>
</g>
</svg>
